<mxfile host="app.diagrams.net" modified="2024-05-13T05:50:43.548Z" agent="Mozilla/5.0 (Windows NT 10.0; Win64; x64) AppleWebKit/537.36 (KHTML, like Gecko) Chrome/124.0.0.0 Safari/537.36" etag="_9YC46AadhpEIblZmjG2" version="24.4.0" type="google">
  <diagram name="Page-1" id="B9a-ZprUISSZMObUXDbv">
    <mxGraphModel grid="1" page="1" gridSize="10" guides="1" tooltips="1" connect="1" arrows="1" fold="1" pageScale="1" pageWidth="850" pageHeight="1100" math="0" shadow="0">
      <root>
        <mxCell id="0" />
        <mxCell id="1" parent="0" />
        <mxCell id="Ix10CHFQ8VX_-DtBF8Sb-17" value="&lt;span style=&quot;font-size: 20px;&quot;&gt;&lt;b&gt;&lt;i&gt;ejercicio_11_AdministradorDeProyectos&lt;/i&gt;&lt;/b&gt;&lt;/span&gt;" style="text;html=1;align=center;verticalAlign=middle;resizable=0;points=[];autosize=1;strokeColor=none;fillColor=none;" vertex="1" parent="1">
          <mxGeometry x="830" y="-2360" width="410" height="40" as="geometry" />
        </mxCell>
        <mxCell id="Ix10CHFQ8VX_-DtBF8Sb-59" value="&lt;font style=&quot;font-size: 16px;&quot;&gt;&lt;b style=&quot;font-size: 16px;&quot;&gt;&lt;i style=&quot;font-size: 16px;&quot;&gt;Concrete State&lt;/i&gt;&lt;/b&gt;&lt;/font&gt;" style="text;html=1;align=center;verticalAlign=middle;whiteSpace=wrap;rounded=0;fontSize=16;" vertex="1" parent="1">
          <mxGeometry x="140" y="-2540" width="120" height="20" as="geometry" />
        </mxCell>
        <mxCell id="Ix10CHFQ8VX_-DtBF8Sb-60" value="&lt;font style=&quot;font-size: 16px;&quot;&gt;&lt;b style=&quot;font-size: 16px;&quot;&gt;&lt;i style=&quot;font-size: 16px;&quot;&gt;State&lt;/i&gt;&lt;/b&gt;&lt;/font&gt;" style="text;html=1;align=center;verticalAlign=middle;whiteSpace=wrap;rounded=0;fontSize=16;" vertex="1" parent="1">
          <mxGeometry x="460" y="-2720" width="50" height="20" as="geometry" />
        </mxCell>
        <mxCell id="Ix10CHFQ8VX_-DtBF8Sb-62" value="ExcursionÂ &#xa;" style="swimlane;fontStyle=0;align=center;verticalAlign=top;childLayout=stackLayout;horizontal=1;startSize=30;horizontalStack=0;resizeParent=1;resizeLast=0;collapsible=1;marginBottom=0;rounded=0;shadow=0;strokeWidth=1;fillColor=#fff2cc;strokeColor=#d6b656;" vertex="1" parent="1">
          <mxGeometry x="480" y="-3140" width="360" height="340" as="geometry">
            <mxRectangle x="110" y="-20" width="160" height="26" as="alternateBounds" />
          </mxGeometry>
        </mxCell>
        <mxCell id="Ix10CHFQ8VX_-DtBF8Sb-63" value="- nombre: String" style="text;align=left;verticalAlign=top;spacingLeft=4;spacingRight=4;overflow=hidden;rotatable=0;points=[[0,0.5],[1,0.5]];portConstraint=eastwest;rounded=0;shadow=0;html=0;" vertex="1" parent="Ix10CHFQ8VX_-DtBF8Sb-62">
          <mxGeometry y="30" width="360" height="22" as="geometry" />
        </mxCell>
        <mxCell id="Ix10CHFQ8VX_-DtBF8Sb-64" value="- fechaInicio: LocalDate" style="text;align=left;verticalAlign=top;spacingLeft=4;spacingRight=4;overflow=hidden;rotatable=0;points=[[0,0.5],[1,0.5]];portConstraint=eastwest;rounded=0;shadow=0;html=0;" vertex="1" parent="Ix10CHFQ8VX_-DtBF8Sb-62">
          <mxGeometry y="52" width="360" height="22" as="geometry" />
        </mxCell>
        <mxCell id="Ix10CHFQ8VX_-DtBF8Sb-65" value="- fechaFin: LocalDate" style="text;align=left;verticalAlign=top;spacingLeft=4;spacingRight=4;overflow=hidden;rotatable=0;points=[[0,0.5],[1,0.5]];portConstraint=eastwest;rounded=0;shadow=0;html=0;" vertex="1" parent="Ix10CHFQ8VX_-DtBF8Sb-62">
          <mxGeometry y="74" width="360" height="22" as="geometry" />
        </mxCell>
        <mxCell id="Ix10CHFQ8VX_-DtBF8Sb-66" value="- objetivo: String" style="text;align=left;verticalAlign=top;spacingLeft=4;spacingRight=4;overflow=hidden;rotatable=0;points=[[0,0.5],[1,0.5]];portConstraint=eastwest;rounded=0;shadow=0;html=0;" vertex="1" parent="Ix10CHFQ8VX_-DtBF8Sb-62">
          <mxGeometry y="96" width="360" height="22" as="geometry" />
        </mxCell>
        <mxCell id="Ix10CHFQ8VX_-DtBF8Sb-67" value="- margenGanancias: double" style="text;align=left;verticalAlign=top;spacingLeft=4;spacingRight=4;overflow=hidden;rotatable=0;points=[[0,0.5],[1,0.5]];portConstraint=eastwest;rounded=0;shadow=0;html=0;" vertex="1" parent="Ix10CHFQ8VX_-DtBF8Sb-62">
          <mxGeometry y="118" width="360" height="22" as="geometry" />
        </mxCell>
        <mxCell id="Ix10CHFQ8VX_-DtBF8Sb-68" value="- cantIntegrantes: int" style="text;align=left;verticalAlign=top;spacingLeft=4;spacingRight=4;overflow=hidden;rotatable=0;points=[[0,0.5],[1,0.5]];portConstraint=eastwest;rounded=0;shadow=0;html=0;" vertex="1" parent="Ix10CHFQ8VX_-DtBF8Sb-62">
          <mxGeometry y="140" width="360" height="22" as="geometry" />
        </mxCell>
        <mxCell id="Ix10CHFQ8VX_-DtBF8Sb-69" value="- montoDiarioPorIntegrantes: double" style="text;align=left;verticalAlign=top;spacingLeft=4;spacingRight=4;overflow=hidden;rotatable=0;points=[[0,0.5],[1,0.5]];portConstraint=eastwest;rounded=0;shadow=0;html=0;" vertex="1" parent="Ix10CHFQ8VX_-DtBF8Sb-62">
          <mxGeometry y="162" width="360" height="22" as="geometry" />
        </mxCell>
        <mxCell id="Ix10CHFQ8VX_-DtBF8Sb-70" value="" style="line;html=1;strokeWidth=1;align=left;verticalAlign=middle;spacingTop=-1;spacingLeft=3;spacingRight=3;rotatable=0;labelPosition=right;points=[];portConstraint=eastwest;" vertex="1" parent="Ix10CHFQ8VX_-DtBF8Sb-62">
          <mxGeometry y="184" width="360" height="8" as="geometry" />
        </mxCell>
        <mxCell id="Ix10CHFQ8VX_-DtBF8Sb-71" value="+ aprobarEtapa()" style="text;align=left;verticalAlign=top;spacingLeft=4;spacingRight=4;overflow=hidden;rotatable=0;points=[[0,0.5],[1,0.5]];portConstraint=eastwest;rounded=0;shadow=0;html=0;" vertex="1" parent="Ix10CHFQ8VX_-DtBF8Sb-62">
          <mxGeometry y="192" width="360" height="22" as="geometry" />
        </mxCell>
        <mxCell id="Ix10CHFQ8VX_-DtBF8Sb-72" value="+ costoDelProyecto(): double" style="text;align=left;verticalAlign=top;spacingLeft=4;spacingRight=4;overflow=hidden;rotatable=0;points=[[0,0.5],[1,0.5]];portConstraint=eastwest;rounded=0;shadow=0;html=0;" vertex="1" parent="Ix10CHFQ8VX_-DtBF8Sb-62">
          <mxGeometry y="214" width="360" height="22" as="geometry" />
        </mxCell>
        <mxCell id="Ix10CHFQ8VX_-DtBF8Sb-73" value="+ costoNulo(): boolean" style="text;align=left;verticalAlign=top;spacingLeft=4;spacingRight=4;overflow=hidden;rotatable=0;points=[[0,0.5],[1,0.5]];portConstraint=eastwest;rounded=0;shadow=0;html=0;" vertex="1" parent="Ix10CHFQ8VX_-DtBF8Sb-62">
          <mxGeometry y="236" width="360" height="22" as="geometry" />
        </mxCell>
        <mxCell id="Ix10CHFQ8VX_-DtBF8Sb-75" value="+ precioDelProyecto(): double" style="text;align=left;verticalAlign=top;spacingLeft=4;spacingRight=4;overflow=hidden;rotatable=0;points=[[0,0.5],[1,0.5]];portConstraint=eastwest;rounded=0;shadow=0;html=0;" vertex="1" parent="Ix10CHFQ8VX_-DtBF8Sb-62">
          <mxGeometry y="258" width="360" height="22" as="geometry" />
        </mxCell>
        <mxCell id="Ix10CHFQ8VX_-DtBF8Sb-76" value="+ modificarMargenGanancias(margen: double)" style="text;align=left;verticalAlign=top;spacingLeft=4;spacingRight=4;overflow=hidden;rotatable=0;points=[[0,0.5],[1,0.5]];portConstraint=eastwest;rounded=0;shadow=0;html=0;" vertex="1" parent="Ix10CHFQ8VX_-DtBF8Sb-62">
          <mxGeometry y="280" width="360" height="22" as="geometry" />
        </mxCell>
        <mxCell id="Ix10CHFQ8VX_-DtBF8Sb-77" value="+ cancelarProyecto()" style="text;align=left;verticalAlign=top;spacingLeft=4;spacingRight=4;overflow=hidden;rotatable=0;points=[[0,0.5],[1,0.5]];portConstraint=eastwest;rounded=0;shadow=0;html=0;" vertex="1" parent="Ix10CHFQ8VX_-DtBF8Sb-62">
          <mxGeometry y="302" width="360" height="22" as="geometry" />
        </mxCell>
        <mxCell id="Ix10CHFQ8VX_-DtBF8Sb-95" style="edgeStyle=orthogonalEdgeStyle;rounded=0;orthogonalLoop=1;jettySize=auto;html=1;endSize=12;startSize=12;" edge="1" parent="1" source="Ix10CHFQ8VX_-DtBF8Sb-80" target="Ix10CHFQ8VX_-DtBF8Sb-62">
          <mxGeometry relative="1" as="geometry">
            <Array as="points">
              <mxPoint x="720" y="-2760" />
              <mxPoint x="720" y="-2760" />
            </Array>
          </mxGeometry>
        </mxCell>
        <mxCell id="Ix10CHFQ8VX_-DtBF8Sb-80" value="Etapa&#xa;" style="swimlane;fontStyle=0;align=center;verticalAlign=top;childLayout=stackLayout;horizontal=1;startSize=30;horizontalStack=0;resizeParent=1;resizeLast=0;collapsible=1;marginBottom=0;rounded=0;shadow=0;strokeWidth=1;fillColor=#fff2cc;strokeColor=#d6b656;" vertex="1" parent="1">
          <mxGeometry x="460" y="-2700" width="400" height="100" as="geometry">
            <mxRectangle x="110" y="-20" width="160" height="26" as="alternateBounds" />
          </mxGeometry>
        </mxCell>
        <mxCell id="Ix10CHFQ8VX_-DtBF8Sb-88" value="" style="line;html=1;strokeWidth=1;align=left;verticalAlign=middle;spacingTop=-1;spacingLeft=3;spacingRight=3;rotatable=0;labelPosition=right;points=[];portConstraint=eastwest;" vertex="1" parent="Ix10CHFQ8VX_-DtBF8Sb-80">
          <mxGeometry y="30" width="400" height="8" as="geometry" />
        </mxCell>
        <mxCell id="Ix10CHFQ8VX_-DtBF8Sb-93" value="+ &lt;&lt;abstract&gt;&gt; void aprobarEtapa()" style="text;align=left;verticalAlign=top;spacingLeft=4;spacingRight=4;overflow=hidden;rotatable=0;points=[[0,0.5],[1,0.5]];portConstraint=eastwest;rounded=0;shadow=0;html=0;" vertex="1" parent="Ix10CHFQ8VX_-DtBF8Sb-80">
          <mxGeometry y="38" width="400" height="22" as="geometry" />
        </mxCell>
        <mxCell id="Ix10CHFQ8VX_-DtBF8Sb-94" value="+ &lt;&lt;abstract&gt;&gt; boolean modificarMargenGanancias(double margen)" style="text;align=left;verticalAlign=top;spacingLeft=4;spacingRight=4;overflow=hidden;rotatable=0;points=[[0,0.5],[1,0.5]];portConstraint=eastwest;rounded=0;shadow=0;html=0;" vertex="1" parent="Ix10CHFQ8VX_-DtBF8Sb-80">
          <mxGeometry y="60" width="400" height="22" as="geometry" />
        </mxCell>
        <mxCell id="Ix10CHFQ8VX_-DtBF8Sb-96" style="edgeStyle=orthogonalEdgeStyle;rounded=0;orthogonalLoop=1;jettySize=auto;html=1;entryX=0.352;entryY=-0.015;entryDx=0;entryDy=0;entryPerimeter=0;endSize=12;startSize=12;" edge="1" parent="1" target="Ix10CHFQ8VX_-DtBF8Sb-80">
          <mxGeometry relative="1" as="geometry">
            <mxPoint x="600" y="-2800" as="sourcePoint" />
            <mxPoint x="610" y="-2820" as="targetPoint" />
            <Array as="points">
              <mxPoint x="601" y="-2800" />
            </Array>
          </mxGeometry>
        </mxCell>
        <mxCell id="Ix10CHFQ8VX_-DtBF8Sb-97" value="proyecto" style="text;html=1;align=center;verticalAlign=middle;whiteSpace=wrap;rounded=0;fontSize=14;" vertex="1" parent="1">
          <mxGeometry x="720" y="-2770" width="70" height="15" as="geometry" />
        </mxCell>
        <mxCell id="Ix10CHFQ8VX_-DtBF8Sb-98" value="&lt;span style=&quot;color: rgb(0, 0, 0); font-family: Helvetica; font-size: 14px; font-style: normal; font-variant-ligatures: normal; font-variant-caps: normal; font-weight: 400; letter-spacing: normal; orphans: 2; text-align: center; text-indent: 0px; text-transform: none; widows: 2; word-spacing: 0px; -webkit-text-stroke-width: 0px; white-space: normal; background-color: rgb(251, 251, 251); text-decoration-thickness: initial; text-decoration-style: initial; text-decoration-color: initial; display: inline !important; float: none;&quot;&gt;1&lt;/span&gt;" style="text;whiteSpace=wrap;html=1;" vertex="1" parent="1">
          <mxGeometry x="702.25" y="-2777.5" width="17.75" height="30" as="geometry" />
        </mxCell>
        <mxCell id="Ix10CHFQ8VX_-DtBF8Sb-101" value="estado" style="text;html=1;align=center;verticalAlign=middle;whiteSpace=wrap;rounded=0;fontSize=14;" vertex="1" parent="1">
          <mxGeometry x="591.25" y="-2770" width="68.75" height="15" as="geometry" />
        </mxCell>
        <mxCell id="Ix10CHFQ8VX_-DtBF8Sb-102" value="&lt;span style=&quot;color: rgb(0, 0, 0); font-family: Helvetica; font-size: 14px; font-style: normal; font-variant-ligatures: normal; font-variant-caps: normal; font-weight: 400; letter-spacing: normal; orphans: 2; text-align: center; text-indent: 0px; text-transform: none; widows: 2; word-spacing: 0px; -webkit-text-stroke-width: 0px; white-space: normal; background-color: rgb(251, 251, 251); text-decoration-thickness: initial; text-decoration-style: initial; text-decoration-color: initial; display: inline !important; float: none;&quot;&gt;1&lt;/span&gt;" style="text;whiteSpace=wrap;html=1;" vertex="1" parent="1">
          <mxGeometry x="580" y="-2777.5" width="16.5" height="30" as="geometry" />
        </mxCell>
        <mxCell id="Ix10CHFQ8VX_-DtBF8Sb-119" style="edgeStyle=orthogonalEdgeStyle;rounded=0;orthogonalLoop=1;jettySize=auto;html=1;endSize=12;startSize=12;endArrow=block;endFill=0;" edge="1" parent="1" source="Ix10CHFQ8VX_-DtBF8Sb-104" target="Ix10CHFQ8VX_-DtBF8Sb-80">
          <mxGeometry relative="1" as="geometry">
            <Array as="points">
              <mxPoint x="300" y="-2560" />
              <mxPoint x="660" y="-2560" />
            </Array>
          </mxGeometry>
        </mxCell>
        <mxCell id="Ix10CHFQ8VX_-DtBF8Sb-104" value="EnContruccion&#xa;" style="swimlane;fontStyle=0;align=center;verticalAlign=top;childLayout=stackLayout;horizontal=1;startSize=30;horizontalStack=0;resizeParent=1;resizeLast=0;collapsible=1;marginBottom=0;rounded=0;shadow=0;strokeWidth=1;fillColor=#fff2cc;strokeColor=#d6b656;" vertex="1" parent="1">
          <mxGeometry x="140" y="-2520" width="320" height="120" as="geometry">
            <mxRectangle x="110" y="-20" width="160" height="26" as="alternateBounds" />
          </mxGeometry>
        </mxCell>
        <mxCell id="Ix10CHFQ8VX_-DtBF8Sb-106" value="" style="line;html=1;strokeWidth=1;align=left;verticalAlign=middle;spacingTop=-1;spacingLeft=3;spacingRight=3;rotatable=0;labelPosition=right;points=[];portConstraint=eastwest;" vertex="1" parent="Ix10CHFQ8VX_-DtBF8Sb-104">
          <mxGeometry y="30" width="320" height="8" as="geometry" />
        </mxCell>
        <mxCell id="Ix10CHFQ8VX_-DtBF8Sb-107" value="+ aprobarEtapa()" style="text;align=left;verticalAlign=top;spacingLeft=4;spacingRight=4;overflow=hidden;rotatable=0;points=[[0,0.5],[1,0.5]];portConstraint=eastwest;rounded=0;shadow=0;html=0;" vertex="1" parent="Ix10CHFQ8VX_-DtBF8Sb-104">
          <mxGeometry y="38" width="320" height="22" as="geometry" />
        </mxCell>
        <mxCell id="Ix10CHFQ8VX_-DtBF8Sb-108" value="+ modificarMargenGanancias(margen: double): boolean" style="text;align=left;verticalAlign=top;spacingLeft=4;spacingRight=4;overflow=hidden;rotatable=0;points=[[0,0.5],[1,0.5]];portConstraint=eastwest;rounded=0;shadow=0;html=0;" vertex="1" parent="Ix10CHFQ8VX_-DtBF8Sb-104">
          <mxGeometry y="60" width="320" height="22" as="geometry" />
        </mxCell>
        <mxCell id="Ix10CHFQ8VX_-DtBF8Sb-120" style="edgeStyle=orthogonalEdgeStyle;rounded=0;orthogonalLoop=1;jettySize=auto;html=1;endSize=12;startSize=12;endArrow=block;endFill=0;" edge="1" parent="1" source="Ix10CHFQ8VX_-DtBF8Sb-109" target="Ix10CHFQ8VX_-DtBF8Sb-80">
          <mxGeometry relative="1" as="geometry" />
        </mxCell>
        <mxCell id="Ix10CHFQ8VX_-DtBF8Sb-109" value="EnEvaluacion" style="swimlane;fontStyle=0;align=center;verticalAlign=top;childLayout=stackLayout;horizontal=1;startSize=30;horizontalStack=0;resizeParent=1;resizeLast=0;collapsible=1;marginBottom=0;rounded=0;shadow=0;strokeWidth=1;fillColor=#fff2cc;strokeColor=#d6b656;" vertex="1" parent="1">
          <mxGeometry x="500" y="-2520" width="320" height="120" as="geometry">
            <mxRectangle x="110" y="-20" width="160" height="26" as="alternateBounds" />
          </mxGeometry>
        </mxCell>
        <mxCell id="Ix10CHFQ8VX_-DtBF8Sb-111" value="" style="line;html=1;strokeWidth=1;align=left;verticalAlign=middle;spacingTop=-1;spacingLeft=3;spacingRight=3;rotatable=0;labelPosition=right;points=[];portConstraint=eastwest;" vertex="1" parent="Ix10CHFQ8VX_-DtBF8Sb-109">
          <mxGeometry y="30" width="320" height="8" as="geometry" />
        </mxCell>
        <mxCell id="Ix10CHFQ8VX_-DtBF8Sb-112" value="+ aprobarEtapa()" style="text;align=left;verticalAlign=top;spacingLeft=4;spacingRight=4;overflow=hidden;rotatable=0;points=[[0,0.5],[1,0.5]];portConstraint=eastwest;rounded=0;shadow=0;html=0;" vertex="1" parent="Ix10CHFQ8VX_-DtBF8Sb-109">
          <mxGeometry y="38" width="320" height="22" as="geometry" />
        </mxCell>
        <mxCell id="Ix10CHFQ8VX_-DtBF8Sb-113" value="+ modificarMargenGanancias(margen: double): boolean" style="text;align=left;verticalAlign=top;spacingLeft=4;spacingRight=4;overflow=hidden;rotatable=0;points=[[0,0.5],[1,0.5]];portConstraint=eastwest;rounded=0;shadow=0;html=0;" vertex="1" parent="Ix10CHFQ8VX_-DtBF8Sb-109">
          <mxGeometry y="60" width="320" height="22" as="geometry" />
        </mxCell>
        <mxCell id="Ix10CHFQ8VX_-DtBF8Sb-121" style="edgeStyle=orthogonalEdgeStyle;rounded=0;orthogonalLoop=1;jettySize=auto;html=1;endSize=12;startSize=12;endArrow=block;endFill=0;" edge="1" parent="1" source="Ix10CHFQ8VX_-DtBF8Sb-114" target="Ix10CHFQ8VX_-DtBF8Sb-80">
          <mxGeometry relative="1" as="geometry">
            <Array as="points">
              <mxPoint x="1020" y="-2560" />
              <mxPoint x="660" y="-2560" />
            </Array>
          </mxGeometry>
        </mxCell>
        <mxCell id="Ix10CHFQ8VX_-DtBF8Sb-114" value="Confirmada" style="swimlane;fontStyle=0;align=center;verticalAlign=top;childLayout=stackLayout;horizontal=1;startSize=30;horizontalStack=0;resizeParent=1;resizeLast=0;collapsible=1;marginBottom=0;rounded=0;shadow=0;strokeWidth=1;fillColor=#fff2cc;strokeColor=#d6b656;" vertex="1" parent="1">
          <mxGeometry x="860" y="-2520" width="320" height="120" as="geometry">
            <mxRectangle x="110" y="-20" width="160" height="26" as="alternateBounds" />
          </mxGeometry>
        </mxCell>
        <mxCell id="Ix10CHFQ8VX_-DtBF8Sb-116" value="" style="line;html=1;strokeWidth=1;align=left;verticalAlign=middle;spacingTop=-1;spacingLeft=3;spacingRight=3;rotatable=0;labelPosition=right;points=[];portConstraint=eastwest;" vertex="1" parent="Ix10CHFQ8VX_-DtBF8Sb-114">
          <mxGeometry y="30" width="320" height="8" as="geometry" />
        </mxCell>
        <mxCell id="Ix10CHFQ8VX_-DtBF8Sb-117" value="+ aprobarEtapa()" style="text;align=left;verticalAlign=top;spacingLeft=4;spacingRight=4;overflow=hidden;rotatable=0;points=[[0,0.5],[1,0.5]];portConstraint=eastwest;rounded=0;shadow=0;html=0;" vertex="1" parent="Ix10CHFQ8VX_-DtBF8Sb-114">
          <mxGeometry y="38" width="320" height="22" as="geometry" />
        </mxCell>
        <mxCell id="Ix10CHFQ8VX_-DtBF8Sb-118" value="+ modificarMargenGanancias(margen: double): boolean" style="text;align=left;verticalAlign=top;spacingLeft=4;spacingRight=4;overflow=hidden;rotatable=0;points=[[0,0.5],[1,0.5]];portConstraint=eastwest;rounded=0;shadow=0;html=0;" vertex="1" parent="Ix10CHFQ8VX_-DtBF8Sb-114">
          <mxGeometry y="60" width="320" height="22" as="geometry" />
        </mxCell>
        <mxCell id="Ix10CHFQ8VX_-DtBF8Sb-122" value="&lt;font style=&quot;font-size: 16px;&quot;&gt;&lt;b style=&quot;font-size: 16px;&quot;&gt;&lt;i style=&quot;font-size: 16px;&quot;&gt;Context&lt;/i&gt;&lt;/b&gt;&lt;/font&gt;" style="text;html=1;align=center;verticalAlign=middle;whiteSpace=wrap;rounded=0;fontSize=16;" vertex="1" parent="1">
          <mxGeometry x="480" y="-3160" width="60" height="20" as="geometry" />
        </mxCell>
        <mxCell id="Ix10CHFQ8VX_-DtBF8Sb-125" value="&lt;font style=&quot;font-size: 16px;&quot;&gt;&lt;b style=&quot;font-size: 16px;&quot;&gt;&lt;i style=&quot;font-size: 16px;&quot;&gt;Concrete State&lt;/i&gt;&lt;/b&gt;&lt;/font&gt;" style="text;html=1;align=center;verticalAlign=middle;whiteSpace=wrap;rounded=0;fontSize=16;" vertex="1" parent="1">
          <mxGeometry x="500" y="-2540" width="130" height="20" as="geometry" />
        </mxCell>
        <mxCell id="Ix10CHFQ8VX_-DtBF8Sb-126" value="&lt;font style=&quot;font-size: 16px;&quot;&gt;&lt;b style=&quot;font-size: 16px;&quot;&gt;&lt;i style=&quot;font-size: 16px;&quot;&gt;Concrete State&lt;/i&gt;&lt;/b&gt;&lt;/font&gt;" style="text;html=1;align=center;verticalAlign=middle;whiteSpace=wrap;rounded=0;fontSize=16;" vertex="1" parent="1">
          <mxGeometry x="860" y="-2540" width="130" height="20" as="geometry" />
        </mxCell>
        <mxCell id="Ix10CHFQ8VX_-DtBF8Sb-127" value="&lt;b style=&quot;&quot;&gt;&lt;i&gt;&lt;font style=&quot;font-size: 20px;&quot;&gt;Patron State&lt;/font&gt;&lt;/i&gt;&lt;/b&gt;" style="text;html=1;align=center;verticalAlign=middle;resizable=0;points=[];autosize=1;strokeColor=none;fillColor=none;" vertex="1" parent="1">
          <mxGeometry x="80" y="-3220" width="140" height="40" as="geometry" />
        </mxCell>
      </root>
    </mxGraphModel>
  </diagram>
</mxfile>
